# Blender 4.1.1
# www.blender.org
o Range_Ruler_-_Massive_-_Collider_Cube.001
v -1.527673 0.536293 8.310479
v 1.552253 0.541057 8.310479
v 1.552254 0.541060 -2.528995
v -1.527673 0.541060 -2.528995
v -1.527673 0.000000 8.310479
v 1.552253 0.004768 8.310479
v 1.552254 -0.000000 -2.528995
v -1.527673 -0.000000 -2.528995
vn 0.0008 -1.0000 -0.0002
vn -0.0008 1.0000 -0.0002
vn -0.0000 -0.0000 1.0000
vn 1.0000 -0.0000 -0.0000
vn -0.0000 -0.0000 -1.0000
vn -1.0000 -0.0000 -0.0000
s 0
f 1//1 4//1 3//1 2//1
f 5//2 6//2 7//2 8//2
f 3//3 4//3 8//3 7//3
f 4//4 1//4 5//4 8//4
f 1//5 2//5 6//5 5//5
f 2//6 3//6 7//6 6//6
